<?xml version="1.0" encoding="UTF-8"?>
<svg width="700pt" height="700pt" version="1.1" viewBox="0 0 700 700" xmlns="http://www.w3.org/2000/svg" xmlns:xlink="http://www.w3.org/1999/xlink">
 <defs>
  <symbol id="z" overflow="visible">
   <path d="m20.844-1.25c-1.0742 0.5625-2.1953 0.98438-3.3594 1.2656-1.168 0.28125-2.3828 0.42188-3.6406 0.42188-3.7812 0-6.7773-1.0508-8.9844-3.1562-2.2109-2.1133-3.3125-4.9766-3.3125-8.5938 0-3.625 1.1016-6.4922 3.3125-8.6094 2.207-2.1133 5.2031-3.1719 8.9844-3.1719 1.2578 0 2.4727 0.14844 3.6406 0.4375 1.1641 0.28125 2.2852 0.69922 3.3594 1.25v4.7031c-1.0859-0.73828-2.1523-1.2812-3.2031-1.625-1.0547-0.34375-2.1641-0.51562-3.3281-0.51562-2.0859 0-3.7266 0.66797-4.9219 2-1.1992 1.3359-1.7969 3.1797-1.7969 5.5312 0 2.3359 0.59766 4.1719 1.7969 5.5156 1.1953 1.3359 2.8359 2 4.9219 2 1.1641 0 2.2734-0.17188 3.3281-0.51562 1.0508-0.34375 2.1172-0.88281 3.2031-1.625z"/>
  </symbol>
  <symbol id="c" overflow="visible">
   <path d="m15.25-12.375c-0.48047-0.22656-0.95312-0.39453-1.4219-0.5-0.46875-0.10156-0.94531-0.15625-1.4219-0.15625-1.3984 0-2.4766 0.44922-3.2344 1.3438-0.75 0.89844-1.125 2.1797-1.125 3.8438v7.8438h-5.4375v-17.016h5.4375v2.7969c0.69531-1.1133 1.5-1.9258 2.4062-2.4375 0.90625-0.50781 1.9922-0.76562 3.2656-0.76562 0.17578 0 0.36719 0.011719 0.57812 0.03125 0.21875 0.011719 0.53125 0.042969 0.9375 0.09375z"/>
  </symbol>
  <symbol id="a" overflow="visible">
   <path d="m19.594-8.5469v1.5469h-12.719c0.13281 1.2734 0.59766 2.2305 1.3906 2.875 0.78906 0.63672 1.8945 0.95312 3.3125 0.95312 1.1445 0 2.3164-0.16406 3.5156-0.5 1.1953-0.34375 2.4297-0.85938 3.7031-1.5469v4.1875c-1.293 0.49219-2.5859 0.85547-3.875 1.0938-1.2812 0.25-2.5625 0.375-3.8438 0.375-3.0859 0-5.4805-0.78125-7.1875-2.3438-1.6992-1.5625-2.5469-3.7539-2.5469-6.5781 0-2.7812 0.83203-4.9609 2.5-6.5469 1.6758-1.5938 3.9844-2.3906 6.9219-2.3906 2.6758 0 4.8164 0.80859 6.4219 2.4219 1.6016 1.6055 2.4062 3.7578 2.4062 6.4531zm-5.5938-1.8125c0-1.0312-0.30469-1.8633-0.90625-2.5-0.59375-0.63281-1.3828-0.95312-2.3594-0.95312-1.0547 0-1.9062 0.29688-2.5625 0.89062s-1.0703 1.4492-1.2344 2.5625z"/>
  </symbol>
  <symbol id="l" overflow="visible">
   <path d="m10.234-7.6562c-1.1367 0-1.9922 0.19531-2.5625 0.57812-0.5625 0.38672-0.84375 0.95312-0.84375 1.7031 0 0.6875 0.22656 1.2305 0.6875 1.625 0.45703 0.38672 1.0977 0.57812 1.9219 0.57812 1.0195 0 1.8789-0.36328 2.5781-1.0938 0.69531-0.73828 1.0469-1.6602 1.0469-2.7656v-0.625zm8.3125-2.0469v9.7031h-5.4844v-2.5156c-0.73047 1.0312-1.5547 1.7812-2.4688 2.25-0.90625 0.46875-2.0117 0.70312-3.3125 0.70312-1.7617 0-3.1953-0.50781-4.2969-1.5312-1.0938-1.0312-1.6406-2.3672-1.6406-4.0156 0-1.9883 0.67969-3.4453 2.0469-4.375 1.375-0.9375 3.5312-1.4062 6.4688-1.4062h3.2031v-0.42188c0-0.86328-0.33984-1.4922-1.0156-1.8906-0.67969-0.40625-1.7344-0.60938-3.1719-0.60938-1.168 0-2.2578 0.12109-3.2656 0.35938-1 0.23047-1.9297 0.57812-2.7812 1.0469v-4.1562c1.1641-0.28125 2.332-0.49219 3.5-0.64062 1.1758-0.14453 2.3516-0.21875 3.5312-0.21875 3.0703 0 5.2852 0.60547 6.6406 1.8125 1.3633 1.2109 2.0469 3.1797 2.0469 5.9062z"/>
  </symbol>
  <symbol id="b" overflow="visible">
   <path d="m8.5469-21.844v4.8281h5.6094v3.8906h-5.6094v7.2188c0 0.79297 0.15625 1.3281 0.46875 1.6094 0.32031 0.27344 0.94531 0.40625 1.875 0.40625h2.7969v3.8906h-4.6719c-2.1484 0-3.668-0.44531-4.5625-1.3438-0.89844-0.89453-1.3438-2.4141-1.3438-4.5625v-7.2188h-2.7031v-3.8906h2.7031v-4.8281z"/>
  </symbol>
  <symbol id="k" overflow="visible">
   <path d="m14.188-14.516v-9.125h5.4688v23.641h-5.4688v-2.4531c-0.75 1-1.5781 1.7344-2.4844 2.2031-0.89844 0.45703-1.9375 0.6875-3.125 0.6875-2.0938 0-3.8203-0.83203-5.1719-2.5-1.3438-1.6641-2.0156-3.8047-2.0156-6.4219 0-2.625 0.67188-4.7695 2.0156-6.4375 1.3516-1.6641 3.0781-2.5 5.1719-2.5 1.1758 0 2.2188 0.23438 3.125 0.70312s1.7344 1.2031 2.4844 2.2031zm-3.5781 11c1.1562 0 2.0391-0.42188 2.6562-1.2656 0.61328-0.85156 0.92188-2.0859 0.92188-3.7031 0-1.625-0.30859-2.8594-0.92188-3.7031-0.61719-0.85156-1.5-1.2812-2.6562-1.2812s-2.043 0.42969-2.6562 1.2812c-0.61719 0.84375-0.92188 2.0781-0.92188 3.7031 0 1.6172 0.30469 2.8516 0.92188 3.7031 0.61328 0.84375 1.5 1.2656 2.6562 1.2656z"/>
  </symbol>
  <symbol id="j" overflow="visible">
   <path d="m11.672-3.5156c1.1562 0 2.0391-0.42188 2.6562-1.2656 0.61328-0.85156 0.92188-2.0859 0.92188-3.7031 0-1.625-0.30859-2.8594-0.92188-3.7031-0.61719-0.85156-1.5-1.2812-2.6562-1.2812-1.168 0-2.0625 0.42969-2.6875 1.2812-0.625 0.85547-0.9375 2.0898-0.9375 3.7031 0 1.6055 0.3125 2.8359 0.9375 3.6875 0.625 0.85547 1.5195 1.2812 2.6875 1.2812zm-3.625-11c0.75-1 1.5781-1.7344 2.4844-2.2031 0.91406-0.46875 1.9688-0.70312 3.1562-0.70312 2.0938 0 3.8125 0.83594 5.1562 2.5 1.3516 1.668 2.0312 3.8125 2.0312 6.4375 0 2.6172-0.67969 4.7578-2.0312 6.4219-1.3438 1.668-3.0625 2.5-5.1562 2.5-1.1875 0-2.2422-0.23438-3.1562-0.70312-0.90625-0.46875-1.7344-1.1953-2.4844-2.1875v2.4531h-5.4375v-23.641h5.4375z"/>
  </symbol>
  <symbol id="i" overflow="visible">
   <path d="m0.375-17.016h5.4375l4.5781 11.547 3.8906-11.547h5.4375l-7.1562 18.625c-0.71875 1.8945-1.5586 3.2188-2.5156 3.9688-0.96094 0.75781-2.2188 1.1406-3.7812 1.1406h-3.1562v-3.5781h1.7031c0.92578 0 1.5977-0.14844 2.0156-0.4375 0.41406-0.29297 0.74219-0.82031 0.98438-1.5781l0.14062-0.46875z"/>
  </symbol>
  <symbol id="h" overflow="visible">
   <path d="m11.938-13.906c0.92578 0 1.625-0.19531 2.0938-0.59375 0.47656-0.40625 0.71875-1.0039 0.71875-1.7969 0-0.78125-0.24219-1.375-0.71875-1.7812-0.46875-0.41406-1.168-0.625-2.0938-0.625h-3.2344v4.7969zm0.20312 9.9219c1.1758 0 2.0547-0.24219 2.6406-0.73438 0.59375-0.5 0.89062-1.25 0.89062-2.25 0-0.98828-0.29297-1.7266-0.875-2.2188-0.58594-0.48828-1.4688-0.73438-2.6562-0.73438h-3.4375v5.9375zm5.4375-8.1562c1.25 0.36719 2.2188 1.043 2.9062 2.0312 0.69531 0.98047 1.0469 2.1836 1.0469 3.6094 0 2.1875-0.74219 3.8203-2.2188 4.8906-1.4805 1.0742-3.7305 1.6094-6.75 1.6094h-9.7031v-22.672h8.7812c3.1445 0 5.4219 0.47656 6.8281 1.4219 1.4141 0.94922 2.125 2.4766 2.125 4.5781 0 1.1055-0.26172 2.043-0.78125 2.8125-0.51172 0.77344-1.2578 1.3438-2.2344 1.7188z"/>
  </symbol>
  <symbol id="g" overflow="visible">
   <path d="m19.188-17.016v17.016h-5.4375v-9.0469l-5.4844 9.0469h-5.6562v-17.016h5.4375v9.0625l5.4844-9.0625z"/>
  </symbol>
  <symbol id="f" overflow="visible">
   <path d="m0.125-17.016h17.766v3.3594h-6.1562v13.656h-5.4375v-13.656h-6.1719z"/>
  </symbol>
  <symbol id="y" overflow="visible">
   <path d="m10.234-7.6562c-1.1367 0-1.9922 0.19531-2.5625 0.57812-0.5625 0.38672-0.84375 0.95312-0.84375 1.7031 0 0.6875 0.22656 1.2305 0.6875 1.625 0.45703 0.38672 1.0977 0.57812 1.9219 0.57812 1.0195 0 1.8789-0.36328 2.5781-1.0938 0.69531-0.73828 1.0469-1.6602 1.0469-2.7656v-0.625zm8.3125-2.0469v9.7031h-5.4844v-2.5156c-0.73047 1.0312-1.5547 1.7812-2.4688 2.25-0.90625 0.46875-2.0117 0.70312-3.3125 0.70312-1.7617 0-3.1953-0.50781-4.2969-1.5312-1.0938-1.0312-1.6406-2.3672-1.6406-4.0156 0-1.9883 0.67969-3.4453 2.0469-4.375 1.375-0.9375 3.5312-1.4062 6.4688-1.4062h3.2031v-0.42188c0-0.86328-0.33984-1.4922-1.0156-1.8906-0.67969-0.40625-1.7344-0.60938-3.1719-0.60938-1.168 0-2.2578 0.12109-3.2656 0.35938-1 0.23047-1.9297 0.57812-2.7812 1.0469v-4.1562c1.1641-0.28125 2.332-0.49219 3.5-0.64062 1.1758-0.14453 2.3516-0.21875 3.5312-0.21875 3.0703 0 5.2852 0.60547 6.6406 1.8125 1.3633 1.2109 2.0469 3.1797 2.0469 5.9062z"/>
  </symbol>
  <symbol id="e" overflow="visible">
   <path d="m1.7188 0v-3.8906c1.7891-0.36328 2.8906-1.1406 3.2969-2.3281 0.30078-0.89453 0.45312-3.5664 0.45312-8.0156v-2.7812h14.703v17.016h-5.4375v-13.125h-3.8281v0.5625c0 4.4492-0.35156 7.3203-1.0469 8.6094-1.418 2.6367-4.1328 3.9531-8.1406 3.9531z"/>
  </symbol>
  <symbol id="x" overflow="visible">
   <path d="m19.188-17.016v17.016h-5.4375v-9.0469l-5.4844 9.0469h-5.6562v-17.016h5.4375v9.0625l5.4844-9.0625zm-13.516-6.375h2.1719c0.11328 0.71094 0.42188 1.25 0.92188 1.625s1.1719 0.5625 2.0156 0.5625c0.83203 0 1.5-0.1875 2-0.5625 0.50781-0.375 0.81641-0.91406 0.92188-1.625h2.1719c-0.054688 1.4609-0.52344 2.5742-1.4062 3.3438-0.88672 0.77344-2.1172 1.1562-3.6875 1.1562-1.5859 0-2.8203-0.38281-3.7031-1.1562-0.875-0.76953-1.3438-1.8828-1.4062-3.3438z"/>
  </symbol>
  <symbol id="w" overflow="visible">
   <path d="m23.188-22.672v22.672h-5.8594v-18.266h-8.625v18.266h-5.8438v-22.672z"/>
  </symbol>
  <symbol id="v" overflow="visible">
   <path d="m0.375-17.016h5.4375l4.5781 11.547 3.8906-11.547h5.4375l-7.1562 18.625c-0.71875 1.8945-1.5586 3.2188-2.5156 3.9688-0.96094 0.75781-2.2188 1.1406-3.7812 1.1406h-3.1562v-3.5781h1.7031c0.92578 0 1.5977-0.14844 2.0156-0.4375 0.41406-0.29297 0.74219-0.82031 0.98438-1.5781l0.14062-0.46875z"/>
  </symbol>
  <symbol id="u" overflow="visible">
   <path d="m13.812-23.641v3.5781h-3.0156c-0.77344 0-1.3086 0.14062-1.6094 0.42188-0.30469 0.27344-0.45312 0.75-0.45312 1.4375v1.1875h4.6406v3.8906h-4.6406v13.125h-5.4375v-13.125h-2.7031v-3.8906h2.7031v-1.1875c0-1.8516 0.51562-3.2227 1.5469-4.1094 1.0312-0.88281 2.6289-1.3281 4.7969-1.3281z"/>
  </symbol>
  <symbol id="d" overflow="visible">
   <path d="m10.703-13.531c-1.1992 0-2.1172 0.43359-2.75 1.2969-0.63672 0.86719-0.95312 2.1172-0.95312 3.75 0 1.625 0.31641 2.8711 0.95312 3.7344 0.63281 0.86719 1.5508 1.2969 2.75 1.2969 1.1875 0 2.0938-0.42969 2.7188-1.2969 0.63281-0.86328 0.95312-2.1094 0.95312-3.7344 0-1.6328-0.32031-2.8828-0.95312-3.75-0.625-0.86328-1.5312-1.2969-2.7188-1.2969zm0-3.8906c2.9258 0 5.2109 0.79297 6.8594 2.375 1.6445 1.5742 2.4688 3.7617 2.4688 6.5625 0 2.793-0.82422 4.9805-2.4688 6.5625-1.6484 1.5742-3.9336 2.3594-6.8594 2.3594-2.9375 0-5.2344-0.78516-6.8906-2.3594-1.6484-1.582-2.4688-3.7695-2.4688-6.5625 0-2.8008 0.82031-4.9883 2.4688-6.5625 1.6562-1.582 3.9531-2.375 6.8906-2.375z"/>
  </symbol>
  <symbol id="t" overflow="visible">
   <path d="m18.375-14.188c0.6875-1.0508 1.5039-1.8516 2.4531-2.4062 0.94531-0.55078 1.9883-0.82812 3.125-0.82812 1.957 0 3.4453 0.60547 4.4688 1.8125 1.0195 1.1992 1.5312 2.9492 1.5312 5.25v10.359h-5.4688v-8.875c0.007813-0.125 0.015625-0.25781 0.015625-0.40625 0.007812-0.14453 0.015625-0.34766 0.015625-0.60938 0-1.207-0.17969-2.082-0.53125-2.625-0.35547-0.53906-0.92969-0.8125-1.7188-0.8125-1.0312 0-1.8281 0.42969-2.3906 1.2812-0.5625 0.85547-0.85547 2.0859-0.875 3.6875v8.3594h-5.4688v-8.875c0-1.8828-0.16406-3.0977-0.48438-3.6406-0.32422-0.53906-0.90234-0.8125-1.7344-0.8125-1.043 0-1.8516 0.43359-2.4219 1.2969-0.5625 0.85547-0.84375 2.0742-0.84375 3.6562v8.375h-5.4688v-17.016h5.4688v2.5c0.66406-0.96875 1.4297-1.6914 2.2969-2.1719 0.875-0.48828 1.832-0.73438 2.875-0.73438 1.1758 0 2.2109 0.28906 3.1094 0.85938 0.90625 0.5625 1.5859 1.3555 2.0469 2.375z"/>
  </symbol>
  <symbol id="s" overflow="visible">
   <path d="m19.719-10.359v10.359h-5.4688v-7.9062c0-1.4766-0.039062-2.4922-0.10938-3.0469-0.0625-0.5625-0.17188-0.97656-0.32812-1.25-0.21875-0.35156-0.51172-0.62891-0.875-0.82812-0.36719-0.19531-0.77734-0.29688-1.2344-0.29688-1.1367 0-2.0312 0.44531-2.6875 1.3281-0.64844 0.875-0.96875 2.0859-0.96875 3.625v8.375h-5.4375v-23.641h5.4375v9.125c0.82031-1 1.6914-1.7344 2.6094-2.2031 0.92578-0.46875 1.9453-0.70312 3.0625-0.70312 1.957 0 3.4453 0.60547 4.4688 1.8125 1.0195 1.1992 1.5312 2.9492 1.5312 5.25z"/>
  </symbol>
  <symbol id="r" overflow="visible">
   <path d="m2.8594-22.672h6.5312l8.25 15.547v-15.547h5.5469v22.672h-6.5469l-8.2344-15.562v15.562h-5.5469z"/>
  </symbol>
  <symbol id="q" overflow="visible">
   <path d="m2.4375-6.625v-10.391h5.4688v1.7031c0 0.92969-0.007812 2.0898-0.015625 3.4844-0.011719 1.3867-0.015625 2.3125-0.015625 2.7812 0 1.3672 0.03125 2.3516 0.09375 2.9531 0.070312 0.60547 0.19531 1.043 0.375 1.3125 0.21875 0.35547 0.50391 0.63281 0.85938 0.82812 0.36328 0.1875 0.78125 0.28125 1.25 0.28125 1.1328 0 2.0234-0.42969 2.6719-1.2969 0.64453-0.875 0.96875-2.0859 0.96875-3.6406v-8.4062h5.4375v17.016h-5.4375v-2.4531c-0.82422 0.99219-1.6953 1.7188-2.6094 2.1875-0.91797 0.46875-1.9297 0.70312-3.0312 0.70312-1.9609 0-3.4531-0.59766-4.4844-1.7969-1.0234-1.207-1.5312-2.9609-1.5312-5.2656z"/>
  </symbol>
  <symbol id="p" overflow="visible">
   <path d="m19.719-10.359v10.359h-5.4688v-7.9219c0-1.4688-0.039062-2.4766-0.10938-3.0312-0.0625-0.5625-0.17188-0.97656-0.32812-1.25-0.21875-0.35156-0.51172-0.62891-0.875-0.82812-0.36719-0.19531-0.77734-0.29688-1.2344-0.29688-1.1367 0-2.0312 0.44531-2.6875 1.3281-0.64844 0.875-0.96875 2.0859-0.96875 3.625v8.375h-5.4375v-17.016h5.4375v2.5c0.82031-1 1.6914-1.7344 2.6094-2.2031 0.92578-0.46875 1.9453-0.70312 3.0625-0.70312 1.957 0 3.4453 0.60547 4.4688 1.8125 1.0195 1.1992 1.5312 2.9492 1.5312 5.25z"/>
  </symbol>
  <symbol id="o" overflow="visible">
   <path d="m2.8594-22.672h9.7031c2.8828 0 5.0977 0.64062 6.6406 1.9219 1.5508 1.2812 2.3281 3.1055 2.3281 5.4688 0 2.375-0.77734 4.2031-2.3281 5.4844-1.543 1.2812-3.7578 1.9219-6.6406 1.9219h-3.8594v7.875h-5.8438zm5.8438 4.2344v6.3281h3.2344c1.1328 0 2.0078-0.27344 2.625-0.82812 0.625-0.55078 0.9375-1.332 0.9375-2.3438 0-1.0078-0.3125-1.7852-0.9375-2.3281-0.61719-0.55078-1.4922-0.82812-2.625-0.82812z"/>
  </symbol>
  <symbol id="n" overflow="visible">
   <path d="m2.6094-17.016h5.4375v16.719c0 2.2695-0.54688 4.0039-1.6406 5.2031-1.0938 1.207-2.6797 1.8125-4.75 1.8125h-2.6875v-3.5781h0.9375c1.0312 0 1.7383-0.23438 2.125-0.70312 0.38281-0.46094 0.57812-1.3711 0.57812-2.7344zm0-6.625h5.4375v4.4375h-5.4375z"/>
  </symbol>
  <symbol id="m" overflow="visible">
   <path d="m16.359-16.484v4.4375c-0.74219-0.50781-1.4844-0.88281-2.2344-1.125-0.74219-0.23828-1.5117-0.35938-2.3125-0.35938-1.5117 0-2.6953 0.44531-3.5469 1.3281-0.84375 0.88672-1.2656 2.125-1.2656 3.7188 0 1.5859 0.42188 2.8203 1.2656 3.7031 0.85156 0.88672 2.0352 1.3281 3.5469 1.3281 0.85156 0 1.6602-0.125 2.4219-0.375 0.76953-0.25 1.4766-0.625 2.125-1.125v4.4531c-0.85547 0.3125-1.7188 0.54688-2.5938 0.70312s-1.75 0.23438-2.625 0.23438c-3.0742 0-5.4766-0.78516-7.2031-2.3594-1.7305-1.5703-2.5938-3.7578-2.5938-6.5625 0-2.8125 0.86328-5.0039 2.5938-6.5781 1.7266-1.5703 4.1289-2.3594 7.2031-2.3594 0.88281 0 1.7578 0.078125 2.625 0.23438 0.86328 0.15625 1.7266 0.39062 2.5938 0.70312z"/>
  </symbol>
 </defs>
 <g>
  <path d="m494.54 172.12c1.0312 0 3.7891 1.168 7.2305 1.168 5.7695 0 13.484-3.2773 18.316-20.875 0.54688-2.0117 3.2227-2.5898 6.6094-2.5898 4.625 0 10.586 1.082 14.336 1.082 1.8398 0 3.1406-0.26172 3.5039-1.0391 3.2734-7.0195-11.332-19.289-12.645-23.172-4.5742-13.402-23.039-35.578-49.496-35.578-1.9805 0-4 0.11719-6.0742 0.38672-12.395 1.5664-6.8086 13.613-15.375 16.727-41.383 14.953-38.348 64.387-63.922 79.102-16.469 9.4688-62.309 17.453-92.258 17.453-8.3555 0-15.469-0.62109-20.379-2.0039-19.586-5.5-59.066-76.672-89.906-76.672-0.14844 0-0.29687 0-0.44922 0.007813-26.73 0.60938-48.719 38.348-34.664 111.82 5.0039 26.172 52.477 41.16 57.598 53.668 27.352 66.789 70.449 97.746 101.88 109.08 8.8984 3.5977 15.551 12.332 16.238 18.594l1.9023 14.996v0.011719c0.29688 2.6133-0.51562 5.4453-2.0859 7.1914-1.332 1.4922-2.7266 1.668-3.6641 1.668h-7.1445c-7.082 0-12.824 5.75-12.824 12.824 0 7.0859 5.7422 12.824 12.824 12.824h7.1445c7.5547 0 14.574-2.6875 20.137-7.6211 6.3711 5.0586 14.559 7.7148 24.328 7.7148h28.293c7.082 0 12.816-5.75 12.816-12.824 0-7.0742-5.7383-12.824-12.816-12.824h-28.293c-7.043 0-11.273-1.9805-13.305-12.383l-1.3438-11.207c-1.3203-13.172 10.246-20.043 13.957-21.891 41.305-17.035 106.45-58.395 120.35-106 13.871-47.523-4.5977-97.117-1.2578-119.39 0.050781-0.18359 0.1875-0.25781 0.44141-0.25781zm-25.789-3.5469c-1.7344 11.68 0.12891 25.074 2.3008 40.582 3.1484 22.387 7.0508 50.258-0.29688 75.414-5.8984 20.203-27.82 43.973-60.145 65.203-17.246 11.336-33.246 19.266-45.246 24.242-0.12891 0.050781-0.27344 0.074219-0.39844 0.12891-0.12891 0.050781-0.25391 0.125-0.38672 0.17969-9.543 3.9023-16.465 5.8672-19.258 6.0977-3.7383-0.039062-9.3398-0.94531-16.133-3.2227-0.46484-0.20703-0.93359-0.42188-1.4141-0.60938-0.45312-0.17969-0.92188-0.25391-1.3867-0.39062-24.125-8.9531-61.09-34.273-85.699-94.359-5.1289-12.508-16.805-19.793-30.328-28.23-7.25-4.5234-24.223-15.121-25.816-20.52-8.1211-42.465-2.4219-68.238 5.625-78.188 0.87891-1.0898 2.5195-2.875 3.9805-3.1406 8.8164 2.4219 28.883 25.867 38.598 37.223 16.941 19.793 29.184 34.09 44.695 38.453 7.0742 1.9844 16.004 2.9609 27.32 2.9609 28.828 0 81.367-7.25 105.05-20.863 17.996-10.367 26.09-28.156 33.246-43.855 8.0195-17.629 13.602-28.664 26.617-33.363 9.2461-3.3594 14.574-9.5586 17.691-14.996 8.4141 2.0117 14.734 8.6992 17.969 13.457-5.2969 4.0938-8.5234 9.543-9.9688 14.809-0.09375 0.3125-0.16797 0.60938-0.25 0.88281h-0.58984c-13.051 0.015625-23.902 9.3438-25.781 22.105z"/>
  <use x="70" y="653.332031" xlink:href="#z"/>
  <use x="92.832031" y="653.332031" xlink:href="#c"/>
  <use x="108.175781" y="653.332031" xlink:href="#a"/>
  <use x="129.273437" y="653.332031" xlink:href="#l"/>
  <use x="150.269531" y="653.332031" xlink:href="#b"/>
  <use x="165.140625" y="653.332031" xlink:href="#a"/>
  <use x="186.242188" y="653.332031" xlink:href="#k"/>
  <use x="219.34375" y="653.332031" xlink:href="#j"/>
  <use x="241.613281" y="653.332031" xlink:href="#i"/>
  <use x="272.722656" y="653.332031" xlink:href="#h"/>
  <use x="296.4375" y="653.332031" xlink:href="#g"/>
  <use x="318.234375" y="653.332031" xlink:href="#f"/>
  <use x="336.265625" y="653.332031" xlink:href="#y"/>
  <use x="357.261719" y="653.332031" xlink:href="#e"/>
  <use x="380.046875" y="653.332031" xlink:href="#g"/>
  <use x="401.847656" y="653.332031" xlink:href="#x"/>
  <use x="434.476562" y="653.332031" xlink:href="#w"/>
  <use x="460.515625" y="653.332031" xlink:href="#e"/>
  <use x="483.300781" y="653.332031" xlink:href="#v"/>
  <use x="503.582031" y="653.332031" xlink:href="#f"/>
  <use x="70" y="684.445312" xlink:href="#u"/>
  <use x="83.535156" y="684.445312" xlink:href="#c"/>
  <use x="98.878906" y="684.445312" xlink:href="#d"/>
  <use x="120.25" y="684.445312" xlink:href="#t"/>
  <use x="163.5" y="684.445312" xlink:href="#b"/>
  <use x="178.371094" y="684.445312" xlink:href="#s"/>
  <use x="200.519531" y="684.445312" xlink:href="#a"/>
  <use x="232.453125" y="684.445312" xlink:href="#r"/>
  <use x="258.488281" y="684.445312" xlink:href="#d"/>
  <use x="279.863281" y="684.445312" xlink:href="#q"/>
  <use x="302.011719" y="684.445312" xlink:href="#p"/>
  <use x="334.992188" y="684.445312" xlink:href="#o"/>
  <use x="357.792969" y="684.445312" xlink:href="#c"/>
  <use x="373.136719" y="684.445312" xlink:href="#d"/>
  <use x="394.507812" y="684.445312" xlink:href="#n"/>
  <use x="405.171875" y="684.445312" xlink:href="#a"/>
  <use x="426.273437" y="684.445312" xlink:href="#m"/>
  <use x="444.714844" y="684.445312" xlink:href="#b"/>
 </g>
</svg>
