<?xml version="1.0" encoding="UTF-8"?>
<svg width="700pt" height="700pt" version="1.1" viewBox="0 0 700 700" xmlns="http://www.w3.org/2000/svg" xmlns:xlink="http://www.w3.org/1999/xlink">
 <defs>
  <symbol id="h" overflow="visible">
   <path d="m39.078-2.3281c-2.0117 1.043-4.1094 1.8281-6.2969 2.3594s-4.4648 0.79688-6.8281 0.79688c-7.0859 0-12.699-1.9766-16.844-5.9375-4.1367-3.957-6.2031-9.3281-6.2031-16.109 0-6.7891 2.0664-12.164 6.2031-16.125 4.1445-3.9688 9.7578-5.9531 16.844-5.9531 2.3633 0 4.6406 0.26562 6.8281 0.79688s4.2852 1.3242 6.2969 2.375v8.7969c-2.0312-1.3828-4.0391-2.3984-6.0156-3.0469-1.9688-0.64453-4.0469-0.96875-6.2344-0.96875-3.9062 0-6.9844 1.2578-9.2344 3.7656-2.2422 2.5-3.3594 5.9531-3.3594 10.359 0 4.3867 1.1172 7.8359 3.3594 10.344 2.25 2.5 5.3281 3.75 9.2344 3.75 2.1875 0 4.2656-0.32031 6.2344-0.96875 1.9766-0.64453 3.9844-1.6602 6.0156-3.0469z"/>
  </symbol>
  <symbol id="g" overflow="visible">
   <path d="m16.031-40.953v9.0625h10.516v7.2812h-10.516v13.531c0 1.4805 0.28906 2.4805 0.875 3 0.59375 0.52344 1.7656 0.78125 3.5156 0.78125h5.2344v7.2969h-8.7344c-4.0312 0-6.8867-0.83594-8.5625-2.5156-1.6797-1.6875-2.5156-4.5391-2.5156-8.5625v-13.531h-5.0781v-7.2812h5.0781v-9.0625z"/>
  </symbol>
  <symbol id="f" overflow="visible">
   <path d="m26.594-27.234v-17.078h10.266v44.312h-10.266v-4.6094c-1.3984 1.875-2.9453 3.25-4.6406 4.125-1.6875 0.875-3.6406 1.3125-5.8594 1.3125-3.9297 0-7.1562-1.5625-9.6875-4.6875-2.5234-3.125-3.7812-7.1445-3.7812-12.062 0-4.9141 1.2578-8.9375 3.7812-12.062 2.5312-3.125 5.7578-4.6875 9.6875-4.6875 2.1953 0 4.1445 0.44531 5.8438 1.3281 1.707 0.88672 3.2578 2.2578 4.6562 4.1094zm-6.7188 20.656c2.1875 0 3.8516-0.79688 5-2.3906 1.1445-1.5938 1.7188-3.9102 1.7188-6.9531 0-3.0391-0.57422-5.3594-1.7188-6.9531-1.1484-1.5938-2.8125-2.3906-5-2.3906-2.168 0-3.8242 0.79688-4.9688 2.3906-1.1484 1.5938-1.7188 3.9141-1.7188 6.9531 0 3.043 0.57031 5.3594 1.7188 6.9531 1.1445 1.5938 2.8008 2.3906 4.9688 2.3906z"/>
  </symbol>
  <symbol id="e" overflow="visible">
   <path d="m21.875-6.5781c2.1758 0 3.8359-0.79688 4.9844-2.3906 1.1562-1.5938 1.7344-3.9102 1.7344-6.9531 0-3.0391-0.57812-5.3594-1.7344-6.9531-1.1484-1.5938-2.8086-2.3906-4.9844-2.3906-2.1875 0-3.8672 0.80469-5.0312 2.4062-1.168 1.6055-1.75 3.918-1.75 6.9375 0 3.0234 0.58203 5.3359 1.75 6.9375 1.1641 1.6055 2.8438 2.4062 5.0312 2.4062zm-6.7812-20.656c1.4062-1.8516 2.9609-3.2227 4.6719-4.1094 1.707-0.88281 3.6719-1.3281 5.8906-1.3281 3.9375 0 7.1641 1.5625 9.6875 4.6875 2.5195 3.125 3.7812 7.1484 3.7812 12.062 0 4.918-1.2617 8.9375-3.7812 12.062-2.5234 3.125-5.75 4.6875-9.6875 4.6875-2.2188 0-4.1836-0.44531-5.8906-1.3281-1.7109-0.88281-3.2656-2.2539-4.6719-4.1094v4.6094h-10.188v-44.312h10.188z"/>
  </symbol>
  <symbol id="d" overflow="visible">
   <path d="m22.391-26.062c1.7266 0 3.0352-0.37891 3.9219-1.1406 0.89453-0.75781 1.3438-1.8789 1.3438-3.3594 0-1.457-0.44922-2.5703-1.3438-3.3438-0.88672-0.76953-2.1953-1.1562-3.9219-1.1562h-6.0781v9zm0.35938 18.594c2.207 0 3.8633-0.46094 4.9688-1.3906 1.1133-0.92578 1.6719-2.332 1.6719-4.2188 0-1.832-0.55469-3.207-1.6562-4.125-1.0938-0.92578-2.7578-1.3906-4.9844-1.3906h-6.4375v11.125zm10.203-15.281c2.3516 0.67969 4.1758 1.9375 5.4688 3.7812 1.2891 1.8438 1.9375 4.1055 1.9375 6.7812 0 4.1055-1.3867 7.1641-4.1562 9.1719-2.7734 2.0117-6.9922 3.0156-12.656 3.0156h-18.188v-42.516h16.453c5.9062 0 10.18 0.89062 12.828 2.6719 2.6562 1.7812 3.9844 4.6406 3.9844 8.5781 0 2.0625-0.48438 3.8242-1.4531 5.2812-0.96875 1.4492-2.375 2.5273-4.2188 3.2344z"/>
  </symbol>
  <symbol id="c" overflow="visible">
   <path d="m4.9062-44.312h10.188v44.312h-10.188z"/>
  </symbol>
  <symbol id="b" overflow="visible">
   <path d="m4.9062-44.312h10.188v24.125l11.734-11.703h11.844l-15.578 14.625 16.812 17.266h-12.359l-12.453-13.297v13.297h-10.188z"/>
  </symbol>
  <symbol id="a" overflow="visible">
   <path d="m31.156-7.75h-17.141l-2.7031 7.75h-11.031l15.75-42.516h13.078l15.75 42.516h-11.031zm-14.406-7.8906h11.641l-5.8125-16.906z"/>
  </symbol>
 </defs>
 <g>
  <path d="m484.05 203.07c-7.4219 0-14.543 2.9492-19.789 8.1953-5.25 5.25-8.1992 12.371-8.1992 19.793s2.9492 14.543 8.1992 19.789c5.25 5.25 12.371 8.1992 19.793 8.1953 7.4219 0 14.543-2.9492 19.789-8.1992 5.25-5.25 8.1953-12.371 8.1953-19.793-0.011718-7.418-2.9609-14.531-8.2109-19.777-5.2461-5.2461-12.359-8.1953-19.777-8.2031zm0 32.641c-1.8828 0-3.5781-1.1328-4.3008-2.8711-0.71875-1.7383-0.32031-3.7422 1.0078-5.0742 1.3281-1.3281 3.332-1.7305 5.0703-1.0117s2.875 2.4141 2.875 4.2969c0 2.5703-2.082 4.6562-4.6523 4.6602z"/>
  <path d="m596.72 259.5c-8.5234-2.9844-35.488-31.797-63.969-78.125h0.003906c-15.734-25.93-41.426-44.266-71.066-50.715v-50.637c0-3.9219-1.9688-7.582-5.2461-9.7422-3.2734-2.1562-7.4141-2.5273-11.016-0.98047-12.191 5.2227-70.578 32.078-76.082 67.699h-164.11c-0.71484 0-1.4258 0.066406-2.125 0.19531-32.883 6.2109-62.797 23.094-85.113 48.031-2.1758-1.0898-4.0469-2.707-5.4336-4.7031-0.37891-0.66406-0.40625-1.4688-0.082031-2.1562 4.6992-9.8906 4.9375-21.316 0.66016-31.398-2.9688-5.0703-7.9922-8.6016-13.766-9.6836-3.0117-0.67187-6.1641-0.10937-8.7578 1.5547-2.5977 1.668-4.418 4.3047-5.0586 7.3203-1.2109 5.6406 1.8477 11.324 7.2227 13.422-0.33594 4.0156-1.1914 7.9727-2.5508 11.77-2.2188 6.6797-1.582 13.98 1.7539 20.176 3.207 5.5664 7.8398 10.176 13.422 13.352-6.25 12.879-9.4609 27.02-9.3945 41.336-0.66016 33.785 4.3828 67.441 14.918 99.547-6.0078 10.922-16.578 36.223-0.99609 58.59 16.23 23.277 81.309 81.816 84.07 84.297v0.003906c2.1445 1.9219 4.918 2.9844 7.7969 2.9844 0.32031 0 0.64453-0.011719 0.96484-0.046875 5.4961-0.45703 33.359-3.6445 42.109-21.66v0.003906c2.1758-4.9531 2.9453-10.406 2.2227-15.77-0.72266-5.3594-2.9062-10.418-6.3125-14.617-4.2734-6.4844-8.4648-12.543-12.477-18.219 13.301-7.2148 24.289-18.039 31.707-31.227h80.32c6.4648 47.355 18.609 94.082 41.406 97.344h-0.003906c3.3164 0.48438 6.6641 0.73438 10.016 0.75 9.4414 0.41406 18.703-2.7031 25.969-8.75 10.66-9.25 15.414-24.395 15.414-49.117v-50.695c22.234-2.3828 76.066-8.6523 123.9-18.105 33.902-6.7109 55.441-29.121 57.609-59.941 1.2266-17.375-4.5469-37.414-17.934-42.086zm-366.34-99.168 63.355 73.578c2.2188 2.5742 5.4453 4.0547 8.8438 4.0547h0.28906c3.4961-0.089844 6.7656-1.7422 8.918-4.5l56.906-73.133h0.10547v39.297l-65.586 61.727-92.117-101.02zm30.789 0h77.957l-37.004 47.555zm328.51 148.91c-2.7578 7.9258-7.7188 14.902-14.305 20.105-6.582 5.207-14.516 8.4219-22.863 9.2773-45.227 8.9492-96.156 15.016-119.37 17.547l-0.003906-33.305c0-6.4414-5.2227-11.664-11.664-11.664-6.4453 0-11.668 5.2227-11.668 11.664v107.46c0 16.656-2.4766 27.242-7.3711 31.492-5 3.1406-11.062 4.1133-16.793 2.6875-7.7812-4.2305-16.695-38.695-22.566-82.629v0.003907c1.2539-3.1445 0.80078-6.7109-1.1953-9.4414-1.6953-14.152-3.082-29.051-3.9922-44.152v0.003906c-0.38281-6.4297-5.9102-11.332-12.34-10.949-6.4297 0.38281-11.332 5.9062-10.949 12.34 0.67188 11.172 1.6367 23.875 2.9805 37.086l-68.047-0.003907c3.0508-11.43 4.5547-23.223 4.4648-35.055 0.96484-21.434-7.2031-42.266-22.477-57.332-27.594-26.262-70.234-24.484-72.062-24.371-6.4219 0.32422-11.367 5.7812-11.059 12.203 0.078125 3.1133 1.4219 6.0586 3.7266 8.1562 2.3008 2.0977 5.3594 3.1641 8.4648 2.9531 0.35156 0.035156 34.688-1.3086 54.934 18.047 10.562 10.676 16.07 25.352 15.141 40.344 0 48.387-24.316 65.082-36.383 70.41-7.4961-9.9102-12.59-16.129-12.992-16.621l-0.003907-0.003906c-4.0938-4.9727-11.449-5.6836-16.422-1.5898-4.9766 4.0977-5.6875 11.449-1.5898 16.426 0.18359 0.22656 18.906 23.047 38.031 52.066 2.1523 3.2578 3.168 6.1406 2.5938 7.3359-1.5625 3.2227-10.184 6.4922-18.285 7.9531h-0.003907c-27.211-23.809-52.781-49.43-76.535-76.688-3.4688-5.3086-4.7031-11.773-3.4336-17.984 4.6602 2.4844 10.41 1.5312 14.02-2.3242 3.6094-3.8594 4.1797-9.6602 1.3906-14.145-0.21875-0.35156-21.703-35.91-21.703-110.33-0.15625-14.156 3.9023-28.043 11.656-39.891 0.14844-0.20312 0.24219-0.4375 0.375-0.65234v0.003907c13.551-18.215 32.359-31.836 53.891-39.035l108.69 119.2c2.1055 2.3164 5.0508 3.6836 8.1758 3.7969 0.14844 0.011719 0.29688 0.011719 0.44531 0.011719 2.9727 0 5.832-1.1328 7.9961-3.168l77.883-73.316h0.003906c2.3398-2.207 3.6641-5.2812 3.668-8.5v-62.32c0-13.695 23.52-31.457 46.223-43.691v106.01c0 6.4453 5.2227 11.668 11.664 11.668 6.4453 0 11.668-5.2227 11.668-11.668v-49.977c21.375 6.0117 39.668 19.918 51.184 38.902 23.426 38.109 55.43 79.492 75 87.5h0.003906c4.2539 8.7891 4.9023 18.891 1.8086 28.152z"/>
  <use x="70" y="735" xlink:href="#h"/>
  <use x="220.503906" y="735" xlink:href="#g"/>
  <use x="287.953125" y="735" xlink:href="#f"/>
  <use x="350.015625" y="735" xlink:href="#e"/>
  <use x="450.105469" y="735" xlink:href="#d"/>
  <use x="494.570312" y="735" xlink:href="#c"/>
  <use x="588.507812" y="735" xlink:href="#b"/>
  <use x="627.300781" y="735" xlink:href="#a"/>
 </g>
</svg>
